<svg width="191" height="40" viewBox="0 0 191 40" fill="none" xmlns="http://www.w3.org/2000/svg">
<path d="M13.12 27.04C13.7333 25.1733 14.28 23.1067 14.76 20.84C15.2667 18.5733 15.52 16.4933 15.52 14.6C15.52 12.7067 15.08 11.2133 14.2 10.12C13.32 9.02667 12.0933 8.48 10.52 8.48C8.25333 8.48 6.16 9.33333 4.24 11.04C3.28 11.8933 2.50667 13.04 1.92 14.48C1.36 15.8933 1.08 17.3733 1.08 18.92C1.08 20.4667 1.29333 21.76 1.72 22.8C2.17333 23.84 2.70667 24.6267 3.32 25.16C4.62667 26.3067 5.76 26.9867 6.72 27.2L7.4 27.32L7.12 28.08C6.66667 27.9467 6.28 27.84 5.96 27.76C5.66667 27.6533 5.13333 27.3733 4.36 26.92C3.58667 26.4667 2.92 25.96 2.36 25.4C1.82667 24.8133 1.33333 23.9867 0.88 22.92C0.453334 21.8267 0.24 20.6133 0.24 19.28C0.24 15.84 1.22667 13.04 3.2 10.88C5.2 8.72 7.78667 7.64 10.96 7.64C16.8267 7.64 19.76 10.4267 19.76 16C19.76 18.8267 19.52 20.96 19.04 22.4C25.68 8.02667 31.6133 0.839998 36.84 0.839998C38.3333 0.839998 39.3867 1.17333 40 1.84C40.6133 2.48 40.92 3.44 40.92 4.72H40C39.8667 3.54667 39.5467 2.77333 39.04 2.4C38.56 2 37.8267 1.8 36.84 1.8C35.1867 1.8 33.3867 2.68 31.44 4.44C29.52 6.17333 27.7067 8.4 26 11.12C22.4267 16.7467 19.6133 22.56 17.56 28.56C15.9067 33.3333 14.7467 36.72 14.08 38.72H8.72C9.25333 37.5467 9.97333 35.7733 10.88 33.4C11.7867 31.0267 12.5333 28.9067 13.12 27.04ZM32.2181 32.36C30.1648 32.36 28.6048 31.8533 27.5381 30.84C26.4715 29.8 25.9381 28.5067 25.9381 26.96C25.9381 25.3867 26.0715 24.0533 26.3381 22.96C26.6315 21.84 27.0981 20.7733 27.7381 19.76C28.3781 18.72 29.3381 17.9067 30.6181 17.32C31.9248 16.7333 33.5381 16.44 35.4581 16.44C37.4048 16.44 38.9115 16.96 39.9781 18C41.0715 19.0133 41.6181 20.4133 41.6181 22.2C41.6181 25.24 40.8048 27.6933 39.1781 29.56C37.5781 31.4267 35.2581 32.36 32.2181 32.36ZM30.4581 28.24C30.4581 30.3733 31.0715 31.44 32.2981 31.44C33.5515 31.44 34.6581 30.3733 35.6181 28.24C36.6048 26.08 37.0981 23.52 37.0981 20.56C37.0981 18.32 36.4848 17.2 35.2581 17.2C34.0581 17.2 32.9515 18.2267 31.9381 20.28C30.9515 22.3067 30.4581 24.96 30.4581 28.24ZM56.7544 36.36C57.7144 36.36 58.541 35.9867 59.2344 35.24L59.7944 35.72C59.1544 36.6267 58.141 37.08 56.7544 37.08C56.1677 37.08 55.5677 37.0133 54.9544 36.88C53.141 38.5333 50.821 39.36 47.9944 39.36C46.3144 39.36 45.0077 39.0667 44.0744 38.48C43.1677 37.92 42.7144 37.1733 42.7144 36.24C42.7144 35.3333 42.9944 34.6 43.5544 34.04C44.141 33.5067 45.1677 33.24 46.6344 33.24C48.101 33.24 50.0344 33.84 52.4344 35.04L53.6744 28.4C52.4744 30.6133 50.9277 31.72 49.0344 31.72C45.4077 31.72 43.5944 29.9333 43.5944 26.36C43.5944 23.3733 44.341 20.9733 45.8344 19.16C47.3544 17.3467 49.2877 16.44 51.6344 16.44C52.9944 16.44 54.0477 16.8533 54.7944 17.68C55.0077 17.92 55.221 18.28 55.4344 18.76L55.7944 16.8C57.7677 16.8 59.2077 16.72 60.1144 16.56L60.6344 16.44L57.9944 31.2C57.5944 33.28 56.7944 34.96 55.5944 36.24C55.941 36.32 56.3277 36.36 56.7544 36.36ZM48.1144 27.6C48.1144 28.8267 48.2344 29.6533 48.4744 30.08C48.7144 30.48 49.1677 30.68 49.8344 30.68C50.501 30.68 51.181 30.32 51.8744 29.6C52.5677 28.88 53.061 28.2133 53.3544 27.6C53.6744 26.96 53.941 26.3467 54.1544 25.76L54.9944 21.16V20.88C54.9944 18.4267 53.8744 17.2 51.6344 17.2C50.781 17.2 49.981 18.36 49.2344 20.68C48.4877 23 48.1144 25.3067 48.1144 27.6ZM47.8344 38.56C49.9677 38.56 51.4077 37.64 52.1544 35.8L51.5944 35.52C51.2744 35.36 51.0744 35.2533 50.9944 35.2C50.941 35.1733 50.7677 35.0933 50.4744 34.96C50.181 34.8267 49.9677 34.7333 49.8344 34.68C49.701 34.6533 49.4877 34.5867 49.1944 34.48C48.9277 34.3733 48.701 34.2933 48.5144 34.24C48.3277 34.2133 48.1144 34.1733 47.8744 34.12C47.4744 34.04 46.8877 34 46.1144 34C45.341 34 44.7144 34.1867 44.2344 34.56C43.781 34.9333 43.5544 35.48 43.5544 36.2C43.5544 36.92 43.941 37.4933 44.7144 37.92C45.4877 38.3467 46.5277 38.56 47.8344 38.56ZM76.3081 32.36C73.9615 32.36 72.6815 31.3333 72.4681 29.28C71.2948 31.3333 69.8148 32.36 68.0281 32.36C66.2415 32.36 64.8148 31.8267 63.7481 30.76C62.7081 29.6667 62.1881 28.1467 62.1881 26.2C62.1881 23.16 62.9348 20.7733 64.4281 19.04C65.9215 17.3067 67.8548 16.44 70.2281 16.44C72.1748 16.44 73.4681 17.36 74.1081 19.2C74.2415 18.4 74.3881 17.6 74.5481 16.8C76.5215 16.8 77.9881 16.72 78.9481 16.56L79.4681 16.44L76.7081 31.56C77.5081 31.48 78.1748 31.1067 78.7081 30.44L79.3081 30.92C78.5081 31.88 77.5081 32.36 76.3081 32.36ZM66.7081 28.24C66.7081 29.44 66.8548 30.28 67.1481 30.76C67.4681 31.2133 67.9481 31.44 68.5881 31.44C69.2281 31.44 69.8815 31.0933 70.5481 30.4C71.4281 29.4933 72.1348 28.3467 72.6681 26.96C72.7481 26.6133 72.8948 25.7867 73.1081 24.48C73.3481 23.1467 73.5481 22.0533 73.7081 21.2C73.6281 20.1867 73.3481 19.3067 72.8681 18.56C72.3881 17.8133 71.7881 17.44 71.0681 17.44C69.7615 17.44 68.7081 18.6133 67.9081 20.96C67.1081 23.28 66.7081 25.7067 66.7081 28.24ZM112.839 8.2C115.319 8.2 117.465 7.69333 119.279 6.68L119.759 7.44C118.079 8.34667 116.279 8.86666 114.359 9C112.892 10.76 111.639 13.0933 110.599 16C109.559 18.9067 109.039 21.7867 109.039 24.64C109.039 27.4933 109.559 29.4933 110.599 30.64C111.639 31.7867 113.039 32.36 114.799 32.36C117.305 32.36 119.625 31.0533 121.759 28.44C123.332 26.4133 124.599 24.12 125.559 21.56C126.545 19 127.159 16.6667 127.399 14.56C127.639 12.4267 127.759 10.3467 127.759 8.32C127.759 6.26667 127.545 4.37333 127.119 2.64L127.959 2.44C128.412 4.17333 128.639 6.09333 128.639 8.2C128.639 10.3067 128.505 12.4533 128.239 14.64C127.999 16.8267 127.372 19.24 126.359 21.88C125.372 24.52 124.065 26.88 122.439 28.96C119.132 33.2267 115.479 35.36 111.479 35.36C109.185 35.36 107.492 34.6 106.399 33.08C105.305 31.5867 104.759 29.7867 104.759 27.68C104.759 25.5733 105.065 23.44 105.679 21.28C106.319 19.12 107.132 17.2267 108.119 15.6C109.799 12.7733 111.412 10.5867 112.959 9.04C112.212 9.04 111.039 8.96 109.439 8.8L104.759 8.52C101.025 8.52 98.1054 9.45333 95.9988 11.32C93.8921 13.16 92.8388 15.7333 92.8388 19.04C92.8388 20.2933 93.0521 21.4267 93.4788 22.44C93.9054 23.4267 94.3854 24.1867 94.9188 24.72C95.4788 25.2533 96.1054 25.7067 96.7988 26.08C97.6521 26.56 98.4788 26.8933 99.2788 27.08L99.0788 27.92C98.5454 27.92 97.7988 27.6533 96.8388 27.12C95.9054 26.5867 95.1054 26.0267 94.4388 25.44C93.7988 24.8267 93.2254 23.96 92.7188 22.84C92.2388 21.72 91.9988 20.4533 91.9988 19.04C91.9988 15.5467 93.1454 12.7733 95.4388 10.72C97.7321 8.66667 100.839 7.64 104.759 7.64C105.665 7.64 107.265 7.73333 109.559 7.92C110.652 8.10667 111.745 8.2 112.839 8.2ZM138.836 16.44C142.223 16.44 143.916 17.7867 143.916 20.48C143.916 22.16 143.116 23.44 141.516 24.32C139.943 25.1733 137.689 25.6133 134.756 25.64C134.703 26.6 134.676 27.36 134.676 27.92C134.676 29.12 134.943 30.0133 135.476 30.6C136.036 31.16 136.729 31.44 137.556 31.44C138.383 31.44 139.129 31.28 139.796 30.96C140.489 30.64 141.036 30.2667 141.436 29.84C141.836 29.3867 142.183 28.92 142.476 28.44C143.009 27.56 143.276 27 143.276 26.76L143.996 27.08C143.916 27.5067 143.676 28.08 143.276 28.8C142.876 29.4933 142.436 30.0667 141.956 30.52C141.476 30.9733 140.769 31.4 139.836 31.8C138.903 32.1733 137.863 32.36 136.716 32.36C134.556 32.36 132.916 31.8533 131.796 30.84C130.703 29.8 130.156 28.3867 130.156 26.6C130.156 23.4267 130.943 20.9467 132.516 19.16C134.089 17.3467 136.196 16.44 138.836 16.44ZM142.916 20.48C142.916 19.6 142.649 18.88 142.116 18.32C141.609 17.7333 140.836 17.44 139.796 17.44C138.783 17.44 137.783 18.0533 136.796 19.28C135.836 20.5067 135.196 22.32 134.876 24.72C140.236 24.6933 142.916 23.28 142.916 20.48ZM146.334 17.88C147.134 16.92 148.134 16.44 149.334 16.44C150.561 16.44 151.508 16.7467 152.174 17.36C152.841 17.9733 153.174 18.84 153.174 19.96V20.2C154.374 17.6933 155.934 16.44 157.854 16.44C159.908 16.44 160.934 17.5067 160.934 19.64C160.934 20.52 160.641 21.4533 160.054 22.44C159.468 23.4267 158.881 24.3733 158.294 25.28C157.708 26.16 157.414 26.9467 157.414 27.64H156.454C156.454 26.6533 157.028 25.32 158.174 23.64C159.321 21.96 159.894 20.6667 159.894 19.76C159.894 18.8267 159.708 18.2 159.334 17.88C158.988 17.5333 158.454 17.36 157.734 17.36C157.041 17.36 156.348 17.6667 155.654 18.28C154.988 18.8933 154.428 19.6667 153.974 20.6C153.254 21.9867 152.774 23.12 152.534 24V24.04L151.094 32H146.294L148.934 17.24C148.134 17.32 147.468 17.6933 146.934 18.36L146.334 17.88ZM165.518 31.32C168.158 31.32 169.478 29.3733 169.478 25.48C169.478 24.52 169.332 23.3867 169.038 22.08C168.772 20.7733 168.612 19.96 168.558 19.64C166.932 21.32 165.105 22.3333 163.078 22.68V21.72C164.998 21.2933 166.798 20.2 168.478 18.44V18.28C168.478 17.64 168.572 17.0133 168.758 16.4C168.945 15.7867 169.132 15.3333 169.318 15.04L169.598 14.6H170.558C170.558 15.7733 170.745 16.8533 171.118 17.84C171.492 18.8 171.905 19.5867 172.358 20.2C172.812 20.7867 173.225 21.5733 173.598 22.56C173.972 23.52 174.158 24.5867 174.158 25.76C174.158 27.6533 173.438 29.2267 171.998 30.48C170.585 31.7333 168.878 32.36 166.878 32.36C164.878 32.36 163.358 31.9067 162.318 31C161.305 30.0933 160.798 29.0533 160.798 27.88C160.798 26.68 161.092 25.8267 161.678 25.32C162.265 24.7867 162.958 24.52 163.758 24.52C164.558 24.52 165.212 24.7867 165.718 25.32C166.252 25.8267 166.518 26.4933 166.518 27.32C166.518 28.12 166.265 28.8 165.758 29.36C165.252 29.92 164.598 30.2 163.798 30.2C163.452 30.2 163.092 30.1467 162.718 30.04C163.305 30.8933 164.238 31.32 165.518 31.32ZM185.125 16.44C188.512 16.44 190.205 17.7867 190.205 20.48C190.205 22.16 189.405 23.44 187.805 24.32C186.232 25.1733 183.978 25.6133 181.045 25.64C180.992 26.6 180.965 27.36 180.965 27.92C180.965 29.12 181.232 30.0133 181.765 30.6C182.325 31.16 183.018 31.44 183.845 31.44C184.672 31.44 185.418 31.28 186.085 30.96C186.778 30.64 187.325 30.2667 187.725 29.84C188.125 29.3867 188.472 28.92 188.765 28.44C189.298 27.56 189.565 27 189.565 26.76L190.285 27.08C190.205 27.5067 189.965 28.08 189.565 28.8C189.165 29.4933 188.725 30.0667 188.245 30.52C187.765 30.9733 187.058 31.4 186.125 31.8C185.192 32.1733 184.152 32.36 183.005 32.36C180.845 32.36 179.205 31.8533 178.085 30.84C176.992 29.8 176.445 28.3867 176.445 26.6C176.445 23.4267 177.232 20.9467 178.805 19.16C180.378 17.3467 182.485 16.44 185.125 16.44ZM189.205 20.48C189.205 19.6 188.938 18.88 188.405 18.32C187.898 17.7333 187.125 17.44 186.085 17.44C185.072 17.44 184.072 18.0533 183.085 19.28C182.125 20.5067 181.485 22.32 181.165 24.72C186.525 24.6933 189.205 23.28 189.205 20.48Z" fill="#55CABF"/>
</svg>
